<svg id="svg" version="1.1" xmlns="http://www.w3.org/2000/svg" xmlns:xlink="http://www.w3.org/1999/xlink" width="400" height="400" viewBox="0, 0, 400,400"><g id="svgg"><path id="path0" d="M189.304 50.415 C 165.628 55.516,152.594 82.606,163.074 104.931 C 177.944 136.606,222.459 134.567,234.364 101.665 C 244.839 72.717,219.509 43.908,189.304 50.415 M205.309 59.763 C 232.921 66.725,235.134 105.552,208.531 116.297 C 189.730 123.891,168.750 109.219,168.750 88.477 C 168.750 69.166,186.697 55.071,205.309 59.763 M157.572 124.432 C 130.499 128.383,118.189 144.417,113.500 181.836 C 111.820 195.248,109.702 235.448,110.557 237.695 C 111.590 240.408,115.678 241.422,117.746 239.479 C 119.221 238.093,119.428 236.725,119.697 226.563 C 121.556 156.361,130.161 136.999,161.098 133.406 C 168.332 132.566,170.489 130.499,168.502 126.311 C 167.296 123.770,164.913 123.360,157.572 124.432 M218.126 130.207 C 215.283 132.652,217.035 137.732,220.973 138.462 C 235.985 141.245,265.774 158.170,278.167 170.957 C 287.636 180.726,285.401 192.226,273.547 194.738 C 268.891 195.724,263.235 195.437,249.774 193.531 L 245.056 192.863 245.954 190.639 C 247.788 186.098,248.457 178.624,247.411 174.369 C 247.208 173.544,247.215 173.544,255.342 173.724 C 265.796 173.956,268.376 173.055,268.354 169.181 C 268.330 165.006,266.678 164.453,254.218 164.453 L 243.708 164.453 241.092 162.371 C 237.304 159.355,235.940 158.635,232.741 157.959 C 225.909 156.516,218.589 158.954,216.802 163.268 L 216.311 164.453 209.311 164.453 C 190.730 164.453,180.859 172.988,180.859 189.054 C 180.859 205.416,199.019 209.164,207.617 194.577 C 208.455 193.156,208.956 192.663,209.375 192.847 C 213.138 194.507,217.973 195.760,221.429 195.970 L 225.273 196.205 225.998 197.551 C 226.397 198.292,227.091 199.190,227.542 199.546 L 228.360 200.195 226.889 216.992 C 224.763 241.266,224.778 241.406,229.530 241.406 C 233.367 241.406,233.454 241.089,235.380 220.010 C 236.311 209.812,237.132 201.409,237.204 201.337 C 237.276 201.265,242.426 201.928,248.648 202.810 C 270.455 205.902,278.978 204.953,286.212 198.625 C 295.010 190.928,295.161 176.706,286.555 166.323 C 273.403 150.456,224.557 124.675,218.126 130.207 M232.701 165.079 C 237.403 166.654,240.951 171.563,238.585 173.220 C 234.891 175.807,223.705 170.338,224.300 166.236 C 224.555 164.479,229.058 163.859,232.701 165.079 M222.362 175.232 C 223.525 176.295,225.314 177.600,226.338 178.133 L 228.200 179.102 227.969 181.384 C 227.215 188.852,223.395 189.652,211.886 184.754 C 206.519 182.470,204.647 182.884,202.538 186.823 C 195.188 200.547,185.075 195.276,191.386 181.011 C 194.157 174.745,198.691 173.024,211.979 173.194 L 220.248 173.300 222.362 175.232 M153.828 174.481 C 153.247 174.853,152.501 175.694,152.169 176.348 C 151.313 178.037,143.777 232.047,143.685 237.152 C 143.604 241.625,149.818 243.053,151.958 239.053 C 152.173 238.651,152.958 233.699,153.702 228.048 C 154.447 222.397,156.291 209.173,157.801 198.661 C 159.311 188.150,160.547 178.880,160.547 178.062 C 160.547 174.871,156.543 172.737,153.828 174.481 M240.912 183.203 C 240.419 188.635,235.947 194.718,232.992 193.976 C 231.609 193.629,231.460 192.442,232.561 190.538 C 233.765 188.455,234.766 185.095,234.766 183.132 L 234.766 181.641 237.207 181.635 C 238.550 181.631,239.912 181.458,240.234 181.250 C 241.129 180.672,241.139 180.699,240.912 183.203 M187.109 292.383 L 187.109 325.000 192.285 325.029 C 195.132 325.045,197.856 325.132,198.340 325.222 C 199.179 325.378,199.219 325.270,199.219 322.799 L 199.219 320.213 201.005 321.859 C 206.380 326.814,216.810 327.595,224.643 323.630 C 236.845 317.452,240.762 299.751,232.632 287.522 C 225.576 276.909,209.440 274.059,200.767 281.895 L 199.219 283.294 199.219 271.530 L 199.219 259.766 193.164 259.766 L 187.109 259.766 187.109 292.383 M247.344 272.657 L 247.461 278.517 244.043 278.516 L 240.625 278.516 240.625 283.398 L 240.625 288.281 244.122 288.281 L 247.619 288.281 247.735 302.091 L 247.852 315.901 249.219 318.581 C 252.250 324.521,261.689 327.580,268.945 324.973 L 270.508 324.412 270.617 319.426 L 270.727 314.440 269.055 314.739 C 260.107 316.338,259.428 315.268,259.397 299.512 L 259.375 288.281 265.039 288.281 L 270.703 288.281 270.703 283.398 L 270.703 278.516 265.039 278.516 L 259.375 278.516 259.375 272.656 L 259.375 266.797 253.301 266.797 L 247.226 266.797 247.344 272.657 M97.852 277.893 C 94.987 278.600,92.646 279.752,90.332 281.591 L 88.281 283.221 88.281 280.673 L 88.281 278.125 82.520 278.125 L 76.758 278.125 76.758 301.562 L 76.758 324.999 82.697 325.000 L 88.635 325.000 88.751 310.840 L 88.867 296.680 89.876 294.529 C 94.086 285.555,107.079 285.512,110.081 294.462 C 110.581 295.952,110.722 298.938,110.845 310.645 L 110.997 325.000 116.826 325.000 L 122.656 325.000 122.656 310.191 C 122.656 293.776,122.410 291.310,120.341 286.974 C 116.741 279.431,107.208 275.581,97.852 277.893 M150.715 277.717 C 135.462 280.512,127.147 292.674,130.273 307.617 C 135.299 331.637,172.036 332.666,179.079 308.984 C 184.302 291.425,168.852 274.394,150.715 277.717 M275.065 278.461 C 275.137 278.645,279.828 289.197,285.490 301.909 L 295.784 325.023 294.749 327.137 C 291.955 332.848,287.093 335.560,281.986 334.256 C 280.832 333.962,280.761 334.218,280.233 340.550 L 279.973 343.663 281.998 344.097 C 288.627 345.519,295.125 343.627,299.372 339.040 C 303.130 334.981,306.547 327.167,323.364 284.180 L 325.656 278.320 319.569 278.212 C 314.668 278.125,313.405 278.212,313.088 278.658 C 312.872 278.963,310.146 286.347,307.031 295.067 C 302.032 309.062,300.781 312.150,300.781 310.501 C 300.781 310.261,298.019 302.879,294.643 294.095 L 288.504 278.125 281.719 278.125 C 277.988 278.125,274.993 278.276,275.065 278.461 M159.634 288.729 C 165.496 290.922,169.152 297.773,167.962 304.336 C 164.916 321.130,141.576 319.020,141.609 301.953 C 141.628 291.870,150.545 285.328,159.634 288.729 M217.672 289.191 C 227.446 293.973,227.427 309.929,217.641 314.734 C 210.109 318.433,200.943 313.913,198.969 305.526 C 196.114 293.396,206.940 283.940,217.672 289.191 " stroke="none" fill="#132249" fill-rule="evenodd"></path><path id="path1" d="M0.000 200.000 L 0.000 400.000 200.000 400.000 L 400.000 400.000 400.000 200.000 L 400.000 0.000 200.000 0.000 L 0.000 0.000 0.000 200.000 M202.213 49.636 C 229.207 52.646,244.696 81.035,232.807 105.708 C 221.459 129.257,190.669 135.108,171.861 117.291 C 147.751 94.452,160.572 53.413,192.991 49.657 C 197.168 49.173,198.041 49.171,202.213 49.636 M192.188 59.550 C 170.829 64.141,161.762 89.358,175.186 106.833 C 191.686 128.311,225.603 117.237,227.220 89.844 C 228.343 70.809,210.717 55.567,192.188 59.550 M167.596 124.902 C 169.778 126.852,169.523 130.872,167.123 132.372 C 166.676 132.651,163.651 133.220,160.401 133.636 C 129.724 137.565,122.034 155.566,119.702 228.906 C 119.380 239.030,118.719 240.625,114.844 240.625 C 110.739 240.625,110.000 238.843,110.323 229.718 C 112.651 163.762,118.104 143.710,137.041 131.463 C 146.154 125.568,164.043 121.728,167.596 124.902 M225.701 130.071 C 247.097 135.698,282.159 157.676,289.383 169.989 C 295.045 179.638,294.048 191.182,286.968 197.958 C 279.544 205.065,271.971 206.089,249.512 203.023 C 238.360 201.501,237.109 201.396,237.109 201.981 C 237.109 203.131,234.008 236.869,233.784 238.160 C 233.263 241.156,229.069 242.479,226.621 240.419 C 224.714 238.814,224.667 240.435,227.578 207.532 L 228.207 200.416 226.799 198.770 C 226.024 197.865,225.391 196.916,225.391 196.661 C 225.391 196.344,224.115 196.136,221.387 196.009 C 218.131 195.856,216.587 195.553,213.127 194.387 C 210.786 193.598,208.846 193.000,208.815 193.058 C 203.482 203.296,191.309 206.908,184.634 200.233 C 176.451 192.050,181.523 172.720,193.380 166.907 C 197.457 164.908,200.143 164.425,208.594 164.171 L 216.211 163.942 217.383 162.148 C 221.643 155.629,234.000 155.825,241.524 162.532 L 243.680 164.453 254.281 164.453 C 267.103 164.453,268.359 164.873,268.359 169.159 C 268.359 173.165,266.595 173.828,255.939 173.828 L 247.348 173.828 247.688 175.293 C 248.557 179.035,247.810 186.289,246.115 190.578 C 245.658 191.734,245.334 192.715,245.396 192.757 C 245.599 192.898,258.318 194.540,262.500 194.965 C 278.600 196.604,287.011 189.596,282.866 177.996 C 278.714 166.379,241.988 143.066,220.669 138.514 C 217.036 137.738,215.406 133.514,217.642 130.671 C 219.254 128.623,219.985 128.568,225.701 130.071 M203.906 173.495 C 196.840 173.977,193.075 176.681,190.818 182.897 C 186.165 195.716,195.381 199.432,202.087 187.441 C 204.656 182.846,206.473 182.244,211.335 184.378 C 221.969 189.045,226.407 188.830,227.484 183.594 C 228.295 179.650,228.252 179.445,226.368 178.341 C 225.402 177.776,223.575 176.449,222.307 175.394 L 220.002 173.476 213.810 173.359 C 210.404 173.295,205.947 173.356,203.906 173.495 M158.560 174.397 C 161.259 175.792,161.285 175.050,157.624 200.822 C 155.812 213.583,153.900 227.341,153.377 231.395 C 152.308 239.678,151.981 240.473,149.288 241.344 C 144.861 242.775,143.014 239.796,143.924 232.694 C 147.202 207.095,151.459 177.096,151.941 176.194 C 153.110 174.011,156.194 173.173,158.560 174.397 M199.219 271.534 L 199.219 283.303 200.938 281.718 C 208.305 274.927,221.828 276.059,229.918 284.145 C 243.089 297.310,237.244 321.109,219.742 325.577 C 213.013 327.295,204.760 325.642,200.631 321.747 L 199.219 320.416 199.219 322.903 L 199.219 325.391 193.164 325.391 L 187.109 325.391 187.109 292.578 L 187.109 259.766 193.164 259.766 L 199.219 259.766 199.219 271.534 M259.375 272.461 L 259.375 278.516 265.039 278.516 L 270.703 278.516 270.703 283.398 L 270.703 288.281 265.009 288.281 L 259.314 288.281 259.442 299.902 C 259.610 315.106,259.628 315.141,267.005 314.755 L 270.703 314.562 270.703 319.555 L 270.703 324.549 269.238 325.067 C 266.264 326.120,258.003 325.764,255.182 324.461 C 248.401 321.329,247.556 318.870,247.350 301.660 L 247.189 288.281 243.707 288.281 L 240.225 288.281 240.261 283.398 L 240.297 278.516 243.781 278.516 L 247.266 278.516 247.266 272.461 L 247.266 266.406 253.320 266.406 L 259.375 266.406 259.375 272.461 M110.352 278.191 C 120.724 281.624,122.639 286.526,122.649 309.668 L 122.656 325.000 116.623 325.000 L 110.590 325.000 110.471 310.059 C 110.358 295.878,110.310 295.028,109.538 293.359 C 106.578 286.966,96.788 286.024,91.831 291.656 C 88.982 294.892,88.915 295.317,88.762 311.035 L 88.627 325.000 82.595 325.000 L 76.563 325.000 76.563 301.563 L 76.563 278.125 82.422 278.125 L 88.281 278.125 88.281 280.710 L 88.281 283.294 89.832 281.893 C 92.533 279.452,95.910 278.050,101.172 277.184 C 103.047 276.875,108.026 277.422,110.352 278.191 M163.560 278.681 C 185.470 285.728,185.770 317.324,163.998 324.877 C 151.892 329.078,137.181 323.850,132.286 313.609 C 122.198 292.500,141.054 271.441,163.560 278.681 M289.173 279.590 C 291.610 285.684,300.781 309.821,300.781 310.143 C 300.781 311.503,301.595 309.894,303.196 305.366 C 304.202 302.522,306.818 295.229,309.010 289.160 L 312.996 278.125 319.430 278.125 C 324.421 278.125,325.821 278.235,325.671 278.613 C 325.565 278.882,323.423 284.375,320.911 290.820 C 304.899 331.907,301.952 338.100,296.738 341.627 C 291.643 345.075,279.244 345.806,279.839 342.624 C 279.944 342.062,280.137 340.371,280.266 338.867 C 280.705 333.768,280.490 334.062,283.614 334.286 C 288.428 334.630,291.756 332.543,294.422 327.506 L 295.680 325.129 285.340 301.853 C 279.653 289.051,275.000 278.475,275.000 278.351 C 275.000 278.227,278.057 278.125,281.794 278.125 L 288.587 278.125 289.173 279.590 M152.087 288.275 C 143.344 290.127,138.935 300.396,143.234 308.894 C 147.963 318.239,162.241 317.855,166.739 308.261 C 171.629 297.832,162.937 285.977,152.087 288.275 M207.161 288.588 C 194.694 293.055,196.254 312.942,209.284 315.647 C 220.173 317.907,228.476 306.153,223.500 295.520 C 220.656 289.441,213.387 286.357,207.161 288.588 " stroke="none" fill="#fbfbfb" fill-rule="evenodd"></path><path id="path2" d="M225.907 164.701 C 220.775 165.846,228.242 173.299,234.961 173.739 C 239.671 174.047,240.597 172.386,237.776 168.687 C 235.485 165.682,229.906 163.809,225.907 164.701 M240.496 181.115 C 240.317 181.297,238.999 181.533,237.566 181.641 L 234.961 181.836 234.718 183.827 C 234.403 186.405,233.739 188.461,232.551 190.538 C 231.261 192.793,231.576 193.750,233.606 193.750 C 236.307 193.750,238.959 190.523,240.421 185.457 C 241.064 183.226,241.112 180.488,240.496 181.115 " stroke="none" fill="#4dd1c7" fill-rule="evenodd"></path><path id="path3" d="M196.784 49.502 C 197.486 49.589,198.541 49.587,199.128 49.498 C 199.715 49.409,199.141 49.338,197.852 49.340 C 196.563 49.342,196.082 49.415,196.784 49.502 M225.195 60.547 C 226.034 61.406,226.809 62.109,226.916 62.109 C 227.024 62.109,226.425 61.406,225.586 60.547 C 224.747 59.688,223.972 58.984,223.865 58.984 C 223.757 58.984,224.356 59.688,225.195 60.547 M212.800 164.346 C 213.502 164.433,214.557 164.431,215.144 164.342 C 215.731 164.252,215.156 164.181,213.867 164.184 C 212.578 164.186,212.098 164.259,212.800 164.346 M205.376 173.323 C 205.862 173.417,206.565 173.413,206.938 173.315 C 207.312 173.217,206.914 173.141,206.055 173.145 C 205.195 173.150,204.890 173.230,205.376 173.323 M208.878 173.329 C 209.571 173.415,210.802 173.417,211.612 173.332 C 212.423 173.247,211.855 173.177,210.352 173.175 C 208.848 173.173,208.185 173.243,208.878 173.329 M119.622 227.344 C 119.622 228.096,119.702 228.403,119.801 228.027 C 119.899 227.651,119.899 227.036,119.801 226.660 C 119.702 226.284,119.622 226.592,119.622 227.344 M250.684 266.696 C 252.241 266.770,254.790 266.770,256.348 266.696 C 257.905 266.622,256.631 266.561,253.516 266.561 C 250.400 266.561,249.126 266.622,250.684 266.696 M102.637 277.229 C 103.120 277.322,103.911 277.322,104.395 277.229 C 104.878 277.136,104.482 277.060,103.516 277.060 C 102.549 277.060,102.153 277.136,102.637 277.229 M240.325 279.688 C 240.325 280.439,240.405 280.747,240.504 280.371 C 240.602 279.995,240.602 279.380,240.504 279.004 C 240.405 278.628,240.325 278.936,240.325 279.688 M240.375 284.766 C 240.375 286.807,240.441 287.642,240.521 286.621 C 240.602 285.601,240.602 283.931,240.521 282.910 C 240.441 281.890,240.375 282.725,240.375 284.766 M110.718 314.063 C 110.718 319.971,110.773 322.388,110.839 319.434 C 110.905 316.479,110.905 311.646,110.839 308.691 C 110.773 305.737,110.718 308.154,110.718 314.063 M247.394 309.570 C 247.396 311.074,247.466 311.642,247.551 310.831 C 247.635 310.021,247.634 308.790,247.548 308.097 C 247.461 307.403,247.392 308.066,247.394 309.570 " stroke="none" fill="#9fa5b7" fill-rule="evenodd"></path><path id="path4" d="M206.750 164.350 C 207.777 164.431,209.359 164.430,210.266 164.348 C 211.172 164.266,210.332 164.200,208.398 164.201 C 206.465 164.202,205.723 164.269,206.750 164.350 M213.972 173.330 C 214.674 173.417,215.729 173.415,216.316 173.326 C 216.903 173.237,216.328 173.166,215.039 173.168 C 213.750 173.170,213.270 173.243,213.972 173.330 M248.150 173.718 C 248.744 173.808,249.623 173.805,250.103 173.712 C 250.583 173.620,250.098 173.546,249.023 173.549 C 247.949 173.552,247.556 173.628,248.150 173.718 M110.638 221.094 C 110.638 221.846,110.718 222.153,110.816 221.777 C 110.914 221.401,110.914 220.786,110.816 220.410 C 110.718 220.034,110.638 220.342,110.638 221.094 M110.263 233.203 C 110.263 234.170,110.339 234.565,110.432 234.082 C 110.525 233.599,110.525 232.808,110.432 232.324 C 110.339 231.841,110.263 232.236,110.263 233.203 M76.745 302.930 C 76.745 314.961,76.795 319.939,76.855 313.993 C 76.916 308.046,76.916 298.202,76.855 292.118 C 76.795 286.033,76.745 290.898,76.745 302.930 M247.435 297.656 C 247.435 302.920,247.490 305.073,247.557 302.441 C 247.625 299.810,247.625 295.503,247.557 292.871 C 247.490 290.239,247.435 292.393,247.435 297.656 M110.675 300.977 C 110.677 302.480,110.747 303.048,110.832 302.237 C 110.917 301.427,110.915 300.196,110.829 299.503 C 110.743 298.810,110.673 299.473,110.675 300.977 M168.059 301.953 C 168.059 302.705,168.140 303.013,168.238 302.637 C 168.336 302.261,168.336 301.646,168.238 301.270 C 168.140 300.894,168.059 301.201,168.059 301.953 M135.156 318.091 C 135.156 318.158,135.728 318.729,136.426 319.361 L 137.695 320.508 136.548 319.238 C 135.479 318.055,135.156 317.789,135.156 318.091 M189.534 325.289 C 190.974 325.364,193.435 325.365,195.002 325.290 C 196.569 325.216,195.391 325.155,192.383 325.154 C 189.375 325.154,188.093 325.214,189.534 325.289 " stroke="none" fill="#7c7c96" fill-rule="evenodd"></path></g></svg>